<?xml version="1.0" encoding="UTF-8"?>
<svg id="Layer_1" data-name="Layer 1" xmlns="http://www.w3.org/2000/svg" viewBox="0 0 743.53 670.78">
  <defs>
    <style>
      .cls-1 {
        opacity: .7;
      }

      .cls-2 {
        opacity: .2;
      }

      .cls-3 {
        fill: #fff;
        stroke-width: 0px;
      }
    </style>
  </defs>
  <g id="_라인" data-name="라인">
    <g>
      <path class="cls-3" d="m567.83,371.68c-6.58,5.98-6.87,7.17-3.4,13.89-5.32-5.37-6.54-5.46-14.26-1.05,6.58-5.98,6.87-7.17,3.4-13.89,5.32,5.37,6.54,5.46,14.26,1.05Z"/>
      <path class="cls-3" d="m488.76,410.98c-.86-6.62-1.56-7.31-8.17-8.17,6.62-.86,7.31-1.56,8.17-8.17.86,6.62,1.56,7.31,8.17,8.17-6.62.86-7.31,1.56-8.17,8.17Z"/>
      <path class="cls-3" d="m394.98,179.18c-1.11-8.54-2.01-9.43-10.54-10.54,8.54-1.11,9.43-2.01,10.54-10.54,1.11,8.54,2.01,9.43,10.54,10.54-8.54,1.11-9.43,2.01-10.54,10.54Z"/>
      <path class="cls-3" d="m240.84,338.78c-1.11-8.54-2.01-9.43-10.54-10.54,8.54-1.11,9.43-2.01,10.54-10.54,1.11,8.54,2.01,9.43,10.54,10.54-8.54,1.11-9.43,2.01-10.54,10.54Z"/>
      <circle class="cls-3" cx="426.09" cy="150.4" r="3.7"/>
      <path class="cls-3" d="m398.95,351.25c-14.88,4.65-5.22-25.42-5.22-25.42,0,0,6.54-39.34,68.45-70.77,61.91-31.43,50.48-58.1,50.48-58.1,0,0-.95-1.9-8.57,17.14-7.62,19.05-68.57,47.62-58.1,41.91s13.33-15.24,20-24.76c6.67-9.52,33.33-41.91,40.95-48.57,7.62-6.67,26.67-6.67,34.29-6.67s6.67-5.71-15.24-5.71-55.24,47.62-55.24,47.62c0,0-1.9,2.86,0-18.1s16.19-28.57,16.19-28.57c0,0,27.62,0,4.76-5.71-22.86-5.71-29.53,56.19-28.57,53.34.95-2.86-2.86-11.43-8.57-15.24s-.95,2.86-.95,3.81,2.86-1.9,3.81,13.33c.95,15.24-6.67,28.57-38.1,47.62-17.8,10.79-19.59,17.3-25.59,28.6-2.23,4.2-.72-9.67-2.79-13.95-14.88-30.69-1.87-56.76,10.28-78.46,13.33-23.81,19.05-25.72,19.05-25.72,27.62-28.57,26.67-61.91,26.67-61.91,0,0-11.43,23.81-11.43,28.57s-30.48,46.67-22.86,25.72,2.86-33.33.95-20c-1.9,13.33-10.48,33.33-13.33,34.29-2.86.95-6.54,15.66-18.63,35.19-3.13,5.05-7.88,21.49-10.23,29.76-5.3,18.63-5.09,39.07-6.51,41.85l-3.43,218.57h47.14s-14.88-31.62-13.02-66.97c0,0,52.3-39.36,81.82-29.83,29.53,9.52,34.29,5.71,34.29,5.71,0,0,4.76.95-14.29-5.71-19.05-6.67-24.76-9.52-36.19-5.71-11.43,3.81,27.01-23.32,53.34-16.19,45.72,12.38,20,2.86,20,2.86,29.53,2.86,33.33-6.67,37.14-10.48,3.81-3.81,5.71-7.62,5.71-7.62,0,0,0-2.86-9.52,7.62-9.52,10.48-40.95,5.71-31.43,1.9,9.52-3.81,7.62-4.76,19.05-21.91,5.47-8.21,9.64-12.49,12.49-14.72,2.16-1.69,4.96-2.3,7.63-1.69,3.02.69,7.16,1.44,6.55.21-.95-1.9-3.81-8.57-19.05,0-15.24,8.57-14.29,22.86-23.81,31.43-9.52,8.57-36.19,8.57-51.43,9.52-15.24.95-55.24,22.86-48.57,20.95s13.33-15.24,18.1-28.57c4.76-13.33,11.43-18.1,17.14-23.81,5.71-5.71,10.48-5.71,12.38-10.48,1.9-4.76-.95,0-14.29,5.71-13.33,5.71-21.91,28.57-30.48,44.76-8.57,16.19-46.4,27.59-47.51,20.91-1.86-11.16-7.44-35.34-1.86-41.85,11.75-13.71,39.85-28.58,44.61-36.2s20.95-17.14,29.53-24.76,38.1-9.52,41.91-10.48,13.33.95,5.71-2.86c-7.62-3.81-40.95,6.67-40.95,6.67,15.24-11.43,22.86-14.29,36.19-19.05,13.33-4.76,31.43-15.24,31.43-15.24,0,0,12.38-20-.95-6.67-13.33,13.33-48.57,22.86-40,19.05s17.14-12.38,30.48-24.76c13.33-12.38,22.86-7.62,22.86-7.62-12.38-12.38-23.81,2.86-23.81,2.86,0,0-7.62,8.57-19.05,17.14-11.43,8.57-36.19,25.72-68.57,47.62"/>
      <g class="cls-1">
        <path class="cls-3" d="m602.23,347.89s-10.62,26.71-32.17,22.05c-21.56-4.67,5.54-18.14,32.17-22.05Z"/>
      </g>
      <g class="cls-1">
        <path class="cls-3" d="m550.96,196.11s-36.56,5.92-19.46,53.14c0,0,19.99,3.83,19.46-53.14Z"/>
      </g>
      <g class="cls-1">
        <path class="cls-3" d="m441.48,346.89s-22.32,10.56-7.06,43.15c0,0,25.61-15.69,7.06-43.15Z"/>
      </g>
      <g class="cls-1">
        <path class="cls-3" d="m539.38,146.25s-28.45-2.46-31.99,20.96c0,0,25.29,6.23,31.99-20.96Z"/>
      </g>
      <g class="cls-1">
        <path class="cls-3" d="m514.47,355.8s-33.34-9.72-51.42,27.88c0,0,27.25,15.26,51.42-27.88Z"/>
      </g>
      <g class="cls-1">
        <path class="cls-3" d="m544.47,332.27s-25.62,15.77-13,44.8c0,0,30.6-14.32,13-44.8Z"/>
      </g>
      <g class="cls-1">
        <path class="cls-3" d="m511.86,231.03s-32.24,15.73-18.13,47.2c0,0,38.28-13.99,18.13-47.2Z"/>
      </g>
      <g class="cls-2">
        <path class="cls-3" d="m456.58,148.39s-17.52-28.39,17.09-41.05c0,0,13.22,28.95-17.09,41.05Z"/>
      </g>
      <g class="cls-1">
        <path class="cls-3" d="m572.91,338.38s-10.2-30.1,24.87-36.17c0,0,6.06,29.88-24.87,36.17Z"/>
      </g>
      <g class="cls-1">
        <path class="cls-3" d="m420.95,185.25s12.11-27.51,45.86-6.11c0,0-14.02,17.68-45.86,6.11Z"/>
      </g>
      <g class="cls-1">
        <path class="cls-3" d="m449.15,341.56s10.05-31.6,42.43-17.55c0,0-20.1,26.33-42.43,17.55Z"/>
      </g>
      <g class="cls-2">
        <path class="cls-3" d="m551.48,283.76s24.98-24.96,50.28,4.43c0,0-32.4,14.98-50.28-4.43Z"/>
      </g>
      <g class="cls-1">
        <path class="cls-3" d="m404.9,143.23s-11.98-48.12,34.49-49.51c0,0-3.11,47.35-34.49,49.51Z"/>
      </g>
      <g class="cls-1">
        <path class="cls-3" d="m441.95,272.82s19.66-23.83,42.22-.49c0,0-26.34,15.8-42.22.49Z"/>
      </g>
      <g class="cls-1">
        <path class="cls-3" d="m413.95,336.35s-15.57-29,14.1-37.49c0,0,5.73,30.97-14.1,37.49Z"/>
      </g>
      <g class="cls-2">
        <path class="cls-3" d="m504.19,403.7s25.1-16.48,39.51,11.74c0,0-29.05,7.08-39.51-11.74Z"/>
      </g>
      <path class="cls-3" d="m683.96,563.27c9.69-12.67,11.96-13.28,26.68-7.15-12.67-9.69-13.28-11.96-7.15-26.68-9.69,12.67-11.96,13.28-26.68,7.15,12.67,9.69,13.28,11.96,7.15,26.68Z"/>
      <circle class="cls-3" cx="427.41" cy="287.4" r="3.61"/>
      <g class="cls-1">
        <path class="cls-3" d="m521.49,305.07s31.79-17,42.98,16.68c0,0-34.55,5.85-42.98-16.68Z"/>
      </g>
      <polygon class="cls-3" points="475.37 142.86 485.08 151.05 480.29 162.81 491.08 156.11 500.79 164.31 497.75 151.97 508.54 145.27 495.87 144.35 492.83 132.01 488.04 143.78 475.37 142.86"/>
      <path class="cls-3" d="m32.05,521.28C-36.29,367.85,7.42,190.57,136.89,84.35,303.04-51.29,543.75-19.54,671.21,152.23c47.44,64.11,73.44,143.58,72.29,223.27-.62,49.71-11.36,99.26-31.54,144.68,20.44-49.26,30.7-102.8,28.58-156.1-1.72-58.8-18.32-117.09-47.18-168.27-2.71-4.56-5.83-10.25-8.71-14.67-3.84-5.84-8.56-13.43-12.69-18.86-2.11-2.78-4.56-6.55-6.69-9.19-2.67-3.45-8.04-10.1-10.63-13.33-2.12-2.49-8.95-10.19-11.21-12.84-4.78-4.85-10.98-11.74-15.89-16.23C470.25-41.16,221.64-24.75,84.58,145.12c0,0-7.07,8.9-7.07,8.9l-6.64,9.22c-1.59,2.22-4.97,6.88-6.45,9.36-8.87,13.18-16.99,27.68-24.14,41.83-2.57,5.7-5.83,12.35-8.25,18.12-1.01,2.82-5.32,12.85-6.34,15.84-1.6,4.42-4.08,11.87-5.61,16.13-26.72,84.08-22.41,175.46,11.96,256.75h0Z"/>
      <path class="cls-3" d="m378.85,179.8s-8.14,72.76,0,93.94c.02-.88-6.49,15-9.3,23.25-2.56,7.52-11.16-73.48,7.44-132.07,18.6-58.6,7.11-67.73,12.09-63.25,9.3,8.37-7.44,66.04-10.23,78.13Z"/>
      <polygon class="cls-3" points="571.53 226.64 576.03 240.48 590.58 240.48 578.81 249.03 583.31 262.88 571.53 254.32 559.76 262.88 564.26 249.03 552.48 240.48 567.04 240.48 571.53 226.64"/>
      <polygon class="cls-3" points="507.38 317.6 511.55 330.45 525.06 330.45 514.13 338.4 518.31 351.25 507.38 343.3 496.45 351.25 500.62 338.4 489.69 330.45 503.2 330.45 507.38 317.6"/>
      <path class="cls-3" d="m187.48,371.68c6.58,5.98,6.87,7.17,3.4,13.89,5.32-5.37,6.54-5.46,14.26-1.05-6.58-5.98-6.87-7.17-3.4-13.89-5.32,5.37-6.54,5.46-14.26,1.05Z"/>
      <path class="cls-3" d="m266.55,410.98c.86-6.62,1.56-7.31,8.17-8.17-6.62-.86-7.31-1.56-8.17-8.17-.86,6.62-1.56,7.31-8.17,8.17,6.62.86,7.31,1.56,8.17,8.17Z"/>
      <circle class="cls-3" cx="329.22" cy="150.4" r="3.7"/>
      <path class="cls-3" d="m348.56,348.14c28.84,16.77,11.71-29.54,11.71-29.54,0,0-5.23-32.12-67.14-63.55s-50.48-58.1-50.48-58.1c0,0,.95-1.9,8.57,17.14,7.62,19.05,68.57,47.62,58.1,41.91-10.48-5.71-13.33-15.24-20-24.76-6.67-9.52-33.33-41.91-40.95-48.57-7.62-6.67-26.67-6.67-34.29-6.67s-6.67-5.71,15.24-5.71c21.91,0,55.24,47.62,55.24,47.62,0,0,1.9,2.86,0-18.1-1.9-20.95-16.19-28.57-16.19-28.57,0,0-27.62,0-4.76-5.71,22.86-5.71,29.53,56.19,28.57,53.34-.95-2.86,2.86-11.43,8.57-15.24,5.71-3.81.95,2.86.95,3.81,0,.95-2.86-1.9-3.81,13.33-.95,15.24,6.67,28.57,38.1,47.62,15.87,9.62,19.01,15.83,23.75,25.07,2.1,4.09,7.98,4.07,10.03-.05,15.33-30.8-3.47-67.02-15.69-88.83-13.33-23.81-46.67-33.33-53.34-37.14s-16.19-17.14-16.19-20.95,15.24,11.43,17.14,15.24,33.33,17.14,33.33,17.14c0,0,9.45.74,7.62-7.62-4.77-21.78-2.86-33.33-.95-20,1.9,13.33,10.48,33.33,13.33,34.29,2.66.89,6.54,15.66,18.63,35.19,3.13,5.05,2.22,29.49,4.58,37.76,5.3,18.63,10.74,31.07,12.16,33.86l3.43,218.57h-47.14s14.88-31.62,13.02-66.97c0,0-52.3-39.36-81.82-29.83-29.53,9.52-34.29,5.71-34.29,5.71,0,0-4.76.95,14.29-5.71,19.05-6.67,24.76-9.52,36.19-5.71s-27.01-23.32-53.34-16.19c-45.72,12.38-20,2.86-20,2.86-29.53,2.86-33.33-6.67-37.14-10.48s-5.71-7.62-5.71-7.62c0,0,0-2.86,9.52,7.62,9.52,10.48,40.95,5.71,31.43,1.9-9.52-3.81-7.62-4.76-19.05-21.91-5.45-8.17-9.59-12.44-12.44-14.68-2.18-1.71-5.02-2.33-7.73-1.71-3.01.69-7.11,1.43-6.5.2.95-1.9,3.81-8.57,19.05,0s14.29,22.86,23.81,31.43c9.52,8.57,36.19,8.57,51.43,9.52,15.24.95,55.24,22.86,48.57,20.95s-13.33-15.24-18.1-28.57c-4.76-13.33-11.43-18.1-17.14-23.81-5.71-5.71-10.48-5.71-12.38-10.48-1.9-4.76.95,0,14.29,5.71,13.33,5.71,21.91,28.57,30.48,44.76,8.57,16.19,46.4,27.59,47.51,20.91,1.86-11.16,7.44-35.34,1.86-41.85-11.75-13.71-39.85-28.58-44.61-36.2s-20.95-17.14-29.53-24.76c-8.57-7.62-38.1-9.52-41.91-10.48s-13.33.95-5.71-2.86c7.62-3.81,40.95,6.67,40.95,6.67-15.24-11.43-22.86-14.29-36.19-19.05-13.33-4.76-31.43-15.24-31.43-15.24,0,0-12.38-20,.95-6.67,13.33,13.33,48.57,22.86,40,19.05-8.57-3.81-17.14-12.38-30.48-24.76-13.33-12.38-22.86-7.62-22.86-7.62,12.38-12.38,23.81,2.86,23.81,2.86,0,0,7.62,8.57,19.05,17.14,11.43,8.57,36.19,25.72,68.57,47.62"/>
      <g class="cls-1">
        <path class="cls-3" d="m153.08,347.89s10.62,26.71,32.17,22.05c21.56-4.67-5.54-18.14-32.17-22.05Z"/>
      </g>
      <g class="cls-1">
        <path class="cls-3" d="m348.25,228.26s19.16,22.09,6.64,42.08c0,0-32.65-10.56-6.64-42.08Z"/>
      </g>
      <g class="cls-1">
        <path class="cls-3" d="m404.06,228.26s-19.16,22.09-6.64,42.08c0,0,32.65-10.56,6.64-42.08Z"/>
      </g>
      <g class="cls-1">
        <path class="cls-3" d="m204.35,196.11s36.56,5.92,19.46,53.14c0,0-19.99,3.83-19.46-53.14Z"/>
      </g>
      <g class="cls-1">
        <path class="cls-3" d="m325.33,379.56s24.62-1.84,27.45,34.04c0,0-30.02-.99-27.45-34.04Z"/>
      </g>
      <g class="cls-1">
        <path class="cls-3" d="m208.17,142.33s35.33-3.05,39.72,26.02c0,0-31.4,7.74-39.72-26.02Z"/>
      </g>
      <g class="cls-2">
        <path class="cls-3" d="m240.84,355.8s33.34-9.72,51.42,27.88c0,0-27.25,15.26-51.42-27.88Z"/>
      </g>
      <g class="cls-1">
        <path class="cls-3" d="m210.84,332.27s25.62,15.77,13,44.8c0,0-30.6-14.32-13-44.8Z"/>
      </g>
      <g class="cls-2">
        <path class="cls-3" d="m243.45,231.03s32.24,15.73,18.13,47.2c0,0-38.28-13.99-18.13-47.2Z"/>
      </g>
      <g class="cls-1">
        <path class="cls-3" d="m307.62,153.63s20.91-31.23-17.54-46.92c0,0-16.09,32.04,17.54,46.92Z"/>
      </g>
      <g class="cls-2">
        <path class="cls-3" d="m182.4,338.38s10.2-30.1-24.87-36.17c0,0-6.06,29.88,24.87,36.17Z"/>
      </g>
      <g class="cls-2">
        <path class="cls-3" d="m333.51,193.72s-12.11-27.51-45.86-6.11c0,0,14.02,17.68,45.86,6.11Z"/>
      </g>
      <g class="cls-1">
        <path class="cls-3" d="m306.16,341.56s-10.05-31.6-42.43-17.55c0,0,20.1,26.33,42.43,17.55Z"/>
      </g>
      <g class="cls-1">
        <path class="cls-3" d="m199.26,258.19s-24.98-24.96-50.28,4.43c0,0,32.4,14.98,50.28-4.43Z"/>
      </g>
      <g class="cls-1">
        <path class="cls-3" d="m362.86,157.22s26.46-44.96-20-60.25c0,0-11.01,48.69,20,60.25Z"/>
      </g>
      <g class="cls-1">
        <path class="cls-3" d="m313.36,272.82s-19.66-23.83-42.22-.49c0,0,26.34,15.8,42.22.49Z"/>
      </g>
      <g class="cls-2">
        <path class="cls-3" d="m351.84,338.49s6.93-32.18-23.94-32.12c0,0,3.07,31.35,23.94,32.12Z"/>
      </g>
      <g class="cls-1">
        <path class="cls-3" d="m251.24,403.84s-25.34-16.63-39.89,11.86c0,0,29.33,7.15,39.89-11.86Z"/>
      </g>
      <circle class="cls-3" cx="327.9" cy="287.4" r="3.61"/>
      <g class="cls-1">
        <path class="cls-3" d="m233.82,305.07s-31.79-17-42.98,16.68c0,0,34.55,5.85,42.98-16.68Z"/>
      </g>
      <polygon class="cls-3" points="279.94 142.86 270.23 151.05 275.02 162.81 264.23 156.11 254.52 164.31 257.56 151.97 246.77 145.27 259.44 144.35 262.48 132.01 267.27 143.78 279.94 142.86"/>
      <polygon class="cls-3" points="193.07 262.82 188.57 276.66 174.01 276.66 185.79 285.21 181.29 299.06 193.07 290.5 204.84 299.06 200.34 285.21 212.12 276.66 197.56 276.66 193.07 262.82"/>
      <polygon class="cls-3" points="325.52 199.49 320.69 214.35 305.07 214.35 317.71 223.54 312.88 238.4 325.52 229.21 338.16 238.4 333.33 223.54 345.97 214.35 330.35 214.35 325.52 199.49"/>
      <path class="cls-3" d="m486.44,668.71v-12.13c-2.07.48-4.69.94-7.16.94-3.97,0-8.8-1.26-11.09-4.81-2.59-4.02-1.6-10.07-1.64-14.61-.09-9.16.11-18.32.11-27.48v-20.44s-.02-.62-.02-.62l.02-.04v-39.42l-15.58,2.51v97.07l.42,4.28c1.43,7.69,6.26,16.8,21.11,16.8,4.08,0,8.72-.7,13.82-2.07Z"/>
      <path class="cls-3" d="m389.88,562.75l-15.11,1.84v67.47c0,3.23,1.14,5.93,3.49,8.28,2.35,2.35,5.11,3.5,8.44,3.5h46.32v-15.36l-39.94,2.65-3.2.21v-68.59Z"/>
      <path class="cls-3" d="m595.22,636.49h.14s.68.05,1.8.05c6.63,0,28.38-1.28,29.94-17.75.82-8.67-.75-15.24-4.65-19.53-3.34-3.67-8.5-5.62-14.95-5.66,0,0-.04,8.21-.04,8.23,0,.03,4.75,1.93,5.25,2.27,5.46,3.71,5.27,13.76-.14,17.44-3.4,2.3-7.3,2.6-11.27,2.85-7.05.46-14.1.77-21.15,1.19s-14.46,1.32-21.63,1.32c-10.82.67-21.64,1.34-32.46,2.01-8.49.53-16.99,1.05-25.48,1.58-2.38.15-4.76.29-7.14.44v8.52l46.24-1.13,3.07-.08v30.36l16.06-1v-29.78l2.9-.1,33.37-1.21h.14Z"/>
      <path class="cls-3" d="m516.36,599.39c0,3.36,1.14,6.04,3.49,8.18,2.12,1.94,4.57,2.88,7.49,2.88.34,0,.69-.01,1.05-.04l61.89-4.29v-56.38l-73.92,9.01v40.64Zm15.52-5.58v-24.76l2.75-.3,36.71-4.03,3.42-.37v28.53l-2.77.28-36.71,3.72-3.39.34v-3.41Z"/>
      <path class="cls-3" d="m271.59,600.5c1.5,2.74,3.67,4.71,6.63,6,3.17,1.39,6.9,2.09,11.09,2.09,6.21,0,11.21-1.48,14.87-4.4,3.5-2.79,5.21-7.28,5.21-13.72v-32.5l-14.96,1.18v14.14l-3.58-.7c-.15-.03-.59-.09-1.54-.09-4.19,0-7.92.7-11.09,2.09-2.98,1.3-5.16,3.23-6.66,5.89l-5.53,9.84,5.55,10.18Zm8.23-18.35c1.52-2.24,3.71-3.43,6.33-3.43s4.8,1.18,6.33,3.42c1.31,1.94,1.95,4.66,1.95,8.32s-.64,6.39-1.95,8.32c-1.52,2.24-3.71,3.43-6.33,3.43s-4.81-1.19-6.33-3.43c-1.31-1.93-1.95-4.65-1.95-8.32s.64-6.39,1.95-8.32Z"/>
      <polygon class="cls-3" points="265.95 601.94 265.95 590.46 265.95 579.02 265.95 560.84 250.84 562.03 250.84 610.52 265.95 608.9 265.95 601.94"/>
      <polygon class="cls-3" points="345.74 572.34 327.15 574.85 327.15 610.18 345.74 608.02 345.74 572.34"/>
      <path class="cls-3" d="m337.76,662.65l4.8,1.06c11.86,2.5,22.42,3.76,31.46,3.76,17.36,0,24.37-4.57,26.6-6.57l-2.35-7.05c-6.09,2.65-14.1,3.99-23.87,3.99-10.77,0-20.63-1.62-24.54-2.35h0s-1.73-.33-1.73-.33c-10.36-2.11-20.58-4.05-30.38-5.78l-4.67-.82,2.74-3.87c1.6-2.26,3.5-5.67,5.62-10.12l.79-1.66,1.84-.05,21.66-.53v-9.63l-31.12,2.73-1.42.12-.99-1.03c-2.48-2.56-4.6-5.36-6.35-8.35l-11.78,4.19c.47.66.98,1.33,1.53,2.02l3.45,4.36-5.54.49-34.97,3.08v4.27l40.65-1.12,4.71-.13-1.88,4.32c-1.08,2.48-2.4,4.84-3.91,7.01l-1.04,1.49-1.8-.23c-7.59-.98-13.35-1.48-17.11-1.48-8.33,0-14.73,1.09-19.02,3.23-4.87,2.43-5.43,5.1-5.43,6.89,0,.81,0,3.26,4.41,5.86,3.44,2.03,8.3,3.05,14.46,3.05,3.3,0,6.71-.34,10.14-1h.03s.03-.01.03-.01c9.45-1.64,16.68-3.9,21.46-6.72l1.05-.62,1.18.29c9.4,2.28,19.93,4.71,31.3,7.22Zm-51.79-6.75c-.91.46-2.19.99-3.9,1.63l-.04.02h-.04c-3.57,1.24-6.65,1.83-9.42,1.83-2.07,0-3.7-.29-4.97-.89-1.91-.9-3.01-2.55-3.01-4.53,0-1.28.52-3.63,3.99-4.92,1.72-.63,3.71-.94,6.1-.94,2.62,0,5.17.41,7.58,1.21l3.28,1.04,7.05,2.24-6.63,3.3Z"/>
      <g>
        <path class="cls-3" d="m151.76,626.88l52.25-4.4,3.25-.27v10.72l-2.77.21-52.73,4.01v13.51c0,3.32,1.14,6.08,3.49,8.44,2.35,2.35,5.11,3.5,8.44,3.5h60.04v-14.72l-57.39,1.72-3.09.09v-9.85l2.84-.16,57.64-3.16v-25.15l-71.97,8.49v7.04Z"/>
        <polygon class="cls-3" points="143.95 600.94 143.95 589.46 143.95 578.02 143.95 559.84 128.83 561.03 128.83 609.52 143.95 607.9 143.95 600.94"/>
        <path class="cls-3" d="m205.14,560.67v2.67l-2.66.31-11.76,1.36-3.34.39v-8.41l-14.96,1.18v14.14l-3.58-.7c-.15-.03-.59-.09-1.54-.09-4.19,0-7.92.7-11.09,2.09-2.98,1.3-5.16,3.23-6.66,5.89l-5.53,9.84,5.55,10.18c1.5,2.74,3.67,4.71,6.63,6,3.17,1.39,6.9,2.09,11.09,2.09,9.22,0,15.11-2.72,17.99-8.33l.75-1.46,1.63-.16,14.18-1.36,3.29-.31v7.17l18.58-2.17v-51.06l-18.58,2.51v8.24Zm-34.68,37.13c-1.52,2.24-3.71,3.43-6.33,3.43s-4.81-1.19-6.33-3.43c-1.31-1.93-1.95-4.65-1.95-8.32s.64-6.39,1.95-8.32c1.52-2.24,3.71-3.43,6.33-3.43s4.8,1.18,6.33,3.42c1.31,1.94,1.95,4.66,1.95,8.32s-.64,6.39-1.95,8.32Zm34.68-24.16v15.34l-2.66.31-11.76,1.36-3.34.39v-18.89l2.69-.28,11.76-1.21,3.31-.34v3.32Z"/>
      </g>
      <path class="cls-3" d="m471.86,607.11s6.91,7.96,17.87-8.01c.92-1.34,1.73-2.74,2.48-4.18,1.36-2.62,4.4-7.75,6.84-6.92.91.31-19.4-9.38-27.19,8.72v10.39Z"/>
      <polygon class="cls-3" points="328.08 564.6 336.36 560.25 344.64 564.6 343.06 555.38 349.76 548.85 340.5 547.51 336.36 539.12 332.22 547.51 322.97 548.85 329.66 555.38 328.08 564.6"/>
    </g>
  </g>
</svg>