<?xml version="1.0" encoding="UTF-8"?>
<svg id="Layer_1" data-name="Layer 1" xmlns="http://www.w3.org/2000/svg" viewBox="0 0 533.11 154.21">
  <defs>
    <style>
      .cls-1 {
        fill: #fff;
      }
    </style>
  </defs>
  <g id="_라인" data-name="라인">
    <g id="text">
      <path class="cls-1" d="M374.92,140.87v-12.13c-2.07.48-4.69.94-7.16.94-3.97,0-8.8-1.26-11.09-4.81-2.59-4.02-1.6-10.07-1.64-14.61-.09-9.16.11-18.32.11-27.48v-20.44s-.02-.62-.02-.62l.02-.04V22.28l-15.58,2.51v97.07l.42,4.28c1.43,7.69,6.26,16.8,21.11,16.8,4.08,0,8.72-.7,13.82-2.07Z"/>
      <path class="cls-1" d="M278.36,34.91l-15.11,1.84v67.47c0,3.23,1.14,5.93,3.49,8.28,2.35,2.35,5.11,3.5,8.44,3.5h46.32v-15.36l-39.94,2.65-3.2.21V34.91Z"/>
      <path class="cls-1" d="M483.7,108.65h.14s.68.05,1.8.05c6.63,0,28.38-1.28,29.94-17.75.82-8.67-.75-15.24-4.65-19.53-3.34-3.67-8.5-5.62-14.95-5.66,0,0-.04,8.21-.04,8.23,0,.03,4.75,1.93,5.25,2.27,5.46,3.71,5.27,13.76-.14,17.44-3.4,2.3-7.3,2.6-11.27,2.85-7.05.46-14.1.77-21.15,1.19s-14.46,1.32-21.63,1.32c-10.82.67-21.64,1.34-32.46,2.01-8.49.53-16.99,1.05-25.48,1.58-2.38.15-4.76.29-7.14.44v8.52l46.24-1.13,3.07-.08v30.36l16.06-1v-29.78l2.9-.1,33.37-1.21h.14Z"/>
      <path class="cls-1" d="M404.84,71.55c0,3.36,1.14,6.04,3.49,8.18,2.12,1.94,4.57,2.88,7.49,2.88.34,0,.69-.01,1.05-.04l61.89-4.29V21.9l-73.92,9.01v40.64ZM420.36,65.97v-24.76l2.75-.3,36.71-4.03,3.42-.37v28.53l-2.77.28-36.71,3.72-3.39.34v-3.41Z"/>
      <path class="cls-1" d="M160.07,72.66c1.5,2.74,3.67,4.71,6.63,6,3.17,1.39,6.9,2.09,11.09,2.09,6.21,0,11.21-1.48,14.87-4.4,3.5-2.79,5.21-7.28,5.21-13.72V30.14l-14.96,1.18v14.14l-3.58-.7c-.15-.03-.59-.09-1.54-.09-4.19,0-7.92.7-11.09,2.09-2.98,1.3-5.16,3.23-6.66,5.89l-5.53,9.84,5.55,10.18ZM168.3,54.32c1.52-2.24,3.71-3.43,6.33-3.43s4.8,1.18,6.33,3.42c1.31,1.94,1.95,4.66,1.95,8.32s-.64,6.39-1.95,8.32c-1.52,2.24-3.71,3.43-6.33,3.43s-4.81-1.19-6.33-3.43c-1.31-1.93-1.95-4.65-1.95-8.32s.64-6.39,1.95-8.32Z"/>
      <polygon class="cls-1" points="154.44 74.1 154.44 62.62 154.44 51.17 154.44 33 139.32 34.19 139.32 82.67 154.44 81.05 154.44 74.1"/>
      <polygon class="cls-1" points="234.22 44.5 215.64 47.01 215.64 82.34 234.22 80.18 234.22 44.5"/>
      <path class="cls-1" d="M226.25,134.81l4.8,1.06c11.86,2.5,22.42,3.76,31.46,3.76,17.36,0,24.37-4.57,26.6-6.57l-2.35-7.05c-6.09,2.65-14.1,3.99-23.87,3.99-10.77,0-20.63-1.62-24.54-2.35h0s-1.73-.33-1.73-.33c-10.36-2.11-20.58-4.05-30.38-5.78l-4.67-.82,2.74-3.87c1.6-2.26,3.5-5.67,5.62-10.12l.79-1.66,1.84-.05,21.66-.53v-9.63l-31.12,2.73-1.42.12-.99-1.03c-2.48-2.56-4.6-5.36-6.35-8.35l-11.78,4.19c.47.66.98,1.33,1.53,2.02l3.45,4.36-5.54.49-34.97,3.08v4.27l40.65-1.12,4.71-.13-1.88,4.32c-1.08,2.48-2.4,4.84-3.91,7.01l-1.04,1.49-1.8-.23c-7.59-.98-13.35-1.48-17.11-1.48-8.33,0-14.73,1.09-19.02,3.23-4.87,2.43-5.43,5.1-5.43,6.89,0,.81,0,3.26,4.41,5.86,3.44,2.03,8.3,3.05,14.46,3.05,3.3,0,6.71-.34,10.14-1h.03s.03-.01.03-.01c9.45-1.64,16.68-3.9,21.46-6.72l1.05-.62,1.18.29c9.4,2.28,19.93,4.71,31.3,7.22ZM174.46,128.06c-.91.46-2.19.99-3.9,1.63l-.04.02h-.04c-3.57,1.24-6.65,1.83-9.42,1.83-2.07,0-3.7-.29-4.97-.89-1.91-.9-3.01-2.55-3.01-4.53,0-1.28.52-3.63,3.99-4.92,1.72-.63,3.71-.94,6.1-.94,2.62,0,5.17.41,7.58,1.21l3.28,1.04,7.05,2.24-6.63,3.3Z"/>
      <g>
        <path class="cls-1" d="M40.24,99.04l52.25-4.4,3.25-.27v10.72l-2.77.21-52.73,4.01v13.51c0,3.32,1.14,6.08,3.49,8.44,2.35,2.35,5.11,3.5,8.44,3.5h60.04v-14.72l-57.39,1.72-3.09.09v-9.85l2.84-.16,57.64-3.16v-25.15l-71.97,8.49v7.04Z"/>
        <polygon class="cls-1" points="32.43 73.1 32.43 61.62 32.43 50.17 32.43 32 17.32 33.19 17.32 81.67 32.43 80.05 32.43 73.1"/>
        <path class="cls-1" d="M93.63,32.83v2.67l-2.66.31-11.76,1.36-3.34.39v-8.41l-14.96,1.18v14.14l-3.58-.7c-.15-.03-.59-.09-1.54-.09-4.19,0-7.92.7-11.09,2.09-2.98,1.3-5.16,3.23-6.66,5.89l-5.53,9.84,5.55,10.18c1.5,2.74,3.67,4.71,6.63,6,3.17,1.39,6.9,2.09,11.09,2.09,9.22,0,15.11-2.72,17.99-8.33l.75-1.46,1.63-.16,14.18-1.36,3.29-.31v7.17l18.58-2.17V22.09l-18.58,2.51v8.24ZM58.95,69.96c-1.52,2.24-3.71,3.43-6.33,3.43s-4.81-1.19-6.33-3.43c-1.31-1.93-1.95-4.65-1.95-8.32s.64-6.39,1.95-8.32c1.52-2.24,3.71-3.43,6.33-3.43s4.8,1.18,6.33,3.42c1.31,1.94,1.95,4.66,1.95,8.32s-.64,6.39-1.95,8.32ZM93.63,45.8v15.34l-2.66.31-11.76,1.36-3.34.39v-18.89l2.69-.28,11.76-1.21,3.31-.34v3.32Z"/>
      </g>
      <path class="cls-1" d="M360.34,79.27s6.91,7.96,17.87-8.01c.92-1.34,1.73-2.74,2.48-4.18,1.36-2.62,4.4-7.75,6.84-6.92.91.31-19.4-9.38-27.19,8.72v10.39Z"/>
      <polygon class="cls-1" points="216.57 36.76 224.85 32.41 233.13 36.76 231.55 27.54 238.25 21.01 228.99 19.67 224.85 11.28 220.71 19.67 211.45 21.01 218.15 27.54 216.57 36.76"/>
    </g>
  </g>
</svg>